PathFileType	4	(X/Y/Z)	C:/Users/opensim2020/Desktop/walking_exp_matlab/subject06_walking21_straight_04.trc	
DataRate	CameraRate	NumFrames	NumMarkers	Units	OrigDataRate	OrigDataStartFrame	OrigNumFrames	
100.00	100.00	4	44	mm	100.00	2322	104	
Frame#	Time	LFHD			RFHD			LBHD			RBHD			C7			T10			CLAV			STRN			RBAK			LSHO			LUPA			LELB			LFRM			LWRA			LWRB			LFIN			RSHO			RUPA			RELB			RFRM			RWRA			RWRB			RFIN			LASI			RASI			LPSI			RPSI			LTHI			LKNE			LTIB			LANK			LHEE			LTOE			RTHI			RKNE			RTIB			RANK			RHEE			RTOE			*39			*40			*41			*42			*43			
		X1	Y1	Z1	X2	Y2	Z2	X3	Y3	Z3	X4	Y4	Z4	X5	Y5	Z5	X6	Y6	Z6	X7	Y7	Z7	X8	Y8	Z8	X9	Y9	Z9	X10	Y10	Z10	X11	Y11	Z11	X12	Y12	Z12	X13	Y13	Z13	X14	Y14	Z14	X15	Y15	Z15	X16	Y16	Z16	X17	Y17	Z17	X18	Y18	Z18	X19	Y19	Z19	X20	Y20	Z20	X21	Y21	Z21	X22	Y22	Z22	X23	Y23	Z23	X24	Y24	Z24	X25	Y25	Z25	X26	Y26	Z26	X27	Y27	Z27	X28	Y28	Z28	X29	Y29	Z29	X30	Y30	Z30	X31	Y31	Z31	X32	Y32	Z32	X33	Y33	Z33	X34	Y34	Z34	X35	Y35	Z35	X36	Y36	Z36	X37	Y37	Z37	X38	Y38	Z38	X39	Y39	Z39	X40	Y40	Z40	X41	Y41	Z41	X42	Y42	Z42	X43	Y43	Z43	X44	Y44	Z44	

40	0.390	1516.04285	541.45062	1656.83875	1385.32446	548.16217	1641.14307	1524.39465	676.01752	1604.44934	1396.25232	680.77637	1594.54028	1472.31592	680.54639	1443.67969	1461.42920	719.86377	1116.39441	1466.73877	569.55341	1366.66016	1475.06592	533.30383	1190.40344	1397.99890	758.33362	1274.34875	1630.02100	619.94586	1399.95398	1710.41174	597.50592	1202.73145	1729.62634	580.56055	1091.42212	1753.16113	502.45300	964.16565	1710.27991	400.30875	885.30090	1746.69397	453.42807	855.30444	1749.30005	382.28760	800.26837	1307.79065	625.98383	1397.09558	1221.96521	698.09729	1210.43982	1204.53210	710.52948	1089.50732	1180.99255	719.70709	970.35449	1200.37207	685.49164	820.30322	1165.79846	741.76917	834.36981	1158.45996	721.74652	752.41687	1575.67285	555.29309	952.18066	1356.11157	544.61432	957.16614	1538.22485	709.68622	986.02002	1371.48633	696.44611	980.89276	1624.06616	653.48541	643.64655	1599.65601	679.10229	481.05688	1590.35254	771.70911	238.90352	1540.54675	817.41302	73.77808	1497.05127	862.18909	64.78899	1535.00732	677.76422	39.30269	1296.67041	504.75739	640.75739	1326.44299	450.15674	528.96631	1338.09583	484.06085	266.39926	1387.29785	497.53036	83.34278	1437.95728	532.36914	58.97406	1378.03113	350.26236	47.77967	1460.45239	644.43256	1694.40881												 
41	0.400	1515.32190	526.35223	1654.32678	1385.15894	533.69623	1638.68066	1524.48828	661.24713	1602.26660	1396.38086	666.28094	1592.08435	1472.77332	666.01410	1441.53467	1461.56445	706.00616	1114.25110	1467.13318	555.06531	1364.35095	1475.89722	519.11383	1187.99609	1398.95959	744.19397	1272.25977	1630.39844	605.15796	1398.09363	1711.30920	581.29175	1201.25940	1730.99109	562.78253	1090.35986	1753.92395	480.25970	965.92706	1710.12231	375.34152	891.54071	1746.61951	426.93231	859.04791	1749.15308	353.34668	807.54626	1308.22290	611.84259	1394.62476	1223.10852	686.11188	1208.67236	1205.66418	699.97021	1087.97046	1181.96741	711.17596	968.93762	1200.68225	679.62183	818.33405	1166.62170	735.73438	833.40491	1158.91541	717.12524	751.15155	1576.64404	542.24530	949.55432	1357.17566	530.57855	954.66278	1537.93738	696.41821	983.71545	1371.26404	681.97235	978.56488	1624.27344	643.78259	641.72809	1599.82983	671.73810	479.59149	1590.45740	768.39252	238.88100	1540.49377	816.89032	74.55520	1496.93176	861.72998	66.16183	1535.03418	677.59082	39.17619	1296.57983	492.20911	637.56812	1326.32922	437.43439	525.91479	1338.11462	456.54999	262.21191	1387.03601	456.42099	78.59435	1438.06555	489.59024	53.06835	1378.03857	307.18759	49.43164	1460.27734	629.78296	1692.09534												 
42	0.410	1515.03577	511.64828	1652.11060	1384.91089	519.26544	1636.12476	1524.56580	646.43677	1600.04016	1396.47900	651.75134	1589.56738	1473.15381	651.43604	1439.28760	1461.65479	691.84613	1111.97461	1467.48596	540.62170	1361.92578	1476.61230	504.80441	1185.61804	1399.74646	729.86346	1269.98596	1630.45300	590.12494	1395.97083	1712.11719	565.08844	1199.76819	1732.25574	545.15344	1089.22681	1754.46765	458.50134	967.75745	1709.69666	351.11472	897.81134	1746.38135	401.02505	863.00635	1748.72424	325.07785	815.15002	1308.56055	597.54242	1392.13452	1224.11548	673.88080	1206.91992	1206.80042	689.23254	1086.31433	1183.01819	702.48822	967.51257	1200.98669	672.68591	816.19159	1167.34668	729.35693	832.53937	1159.25879	712.29742	749.96271	1577.45007	529.04541	946.91138	1357.86804	515.87036	952.15295	1537.65234	682.93073	981.42365	1371.11731	667.61597	976.36206	1624.44189	633.94867	639.98883	1600.06506	664.21844	478.16260	1590.41992	765.01318	239.06313	1540.46997	816.29150	75.52339	1496.86536	861.20770	67.66307	1535.14722	677.44177	39.11897	1296.56665	480.43765	633.69666	1326.22839	425.15878	522.37616	1338.20471	429.66565	258.76465	1386.58789	415.85593	75.21445	1437.12219	447.60504	49.63115	1377.90149	265.03391	52.48740	1460.07153	615.06769	1689.63013												 
43	0.420	1514.70447	496.83340	1649.79980	1384.57581	504.88297	1633.53308	1524.32520	631.29059	1597.60144	1396.52771	637.22211	1587.00854	1473.43103	636.79565	1436.90112	1461.60217	677.70184	1109.63330	1467.76208	525.88184	1359.57141	1477.29407	490.40210	1183.11511	1400.38184	715.40564	1267.63354	1630.69714	575.29199	1393.99792	1712.84436	548.96832	1198.29407	1733.44727	527.79565	1088.16199	1754.74438	437.06448	969.51385	1709.08594	327.55496	904.17114	1746.10461	375.69485	867.28882	1748.08521	297.67624	822.93408	1308.86560	583.15295	1389.65186	1224.90930	661.47949	1205.15857	1207.42749	677.96796	1084.89355	1183.55652	692.99695	966.31818	1201.10339	665.61597	814.40125	1168.05237	722.34491	831.68988	1159.65479	706.66608	748.83984	1578.11096	515.54419	944.25012	1358.63110	501.01007	949.54224	1537.28748	669.33044	979.13989	1370.55920	652.60004	974.10004	1624.68311	623.80060	638.22565	1600.33337	656.59406	476.81677	1590.39392	761.56726	239.12775	1540.38831	815.55505	76.73293	1496.82019	860.68311	69.68412	1535.20630	677.25024	39.07062	1296.63928	469.37344	629.39777	1326.74426	413.74225	518.02783	1338.18164	403.47632	256.01563	1385.49609	376.63184	73.74111	1435.84155	407.27087	47.54920	1377.50952	224.37051	56.67677	1459.91199	600.40680	1687.24756												 
